# xmcd
#
# Track frame offsets:
#	150
#	16279
#	30216
#	47266
#	61548
#	77389
#	94428
#	125674
#	140743
#	158606
#	175676
#	192483
#	206133
#	224003
#	248032
#
# Disc length: 3534 seconds
#
# Revision: 1
# Processed by: cddbd v1.5.2PL0 Copyright (c) Steve Scherf et al.
# Submitted via: audiograbber 1.83.01
#
DISCID=c50dcc0f
DTITLE=JonesTM - HC200736
DYEAR=2007
DGENRE=Country
TTITLE0=Darren Kozelsky - Running Kind
TTITLE1=Ronnie Bear - This Cowboy Is An Indian
TTITLE2=Halfway To Hazard - Devil And The Cross [Radio Edit]
TTITLE3=Ashton Shepherd - Takin' Off This Pain [Album Version]
TTITLE4=Drew Davis Band - Back There All The Time [Single Version]
TTITLE5=7 Sons Of Soul - Prayin' 4 You
TTITLE6=Marvin Sapp - Never Would Have Made It [Live]
TTITLE7=Ann Nesby - I Apologize [Shout And Testify Mix]
TTITLE8=Dwayne Kerr Feat. Erykah Badu  - Ain't No Sunshine [Album Version]
TTITLE9=Diana Krall - The Heart Of Saturday Night [Radio Edit]
TTITLE10=Candy Dulfer - L.A. City Lights [Album Version]
TTITLE11=Phillip Martin - American Garden [Radio Edit]
TTITLE12=Jonathan Butler - Sarah Sarah [Radio Edit]
TTITLE13=Rob Ryndak - Jadey [Album Version]
TTITLE14=Les Sabler - Club Street
EXTD=
EXTT0=
EXTT1=
EXTT2=
EXTT3=
EXTT4=
EXTT5=
EXTT6=
EXTT7=
EXTT8=
EXTT9=
EXTT10=
EXTT11=
EXTT12=
EXTT13=
EXTT14=
PLAYORDER=
